<?xml version="1.0" standalone="no"?>
<!DOCTYPE svg PUBLIC "-//W3C//DTD SVG 20010904//EN"
 "http://www.w3.org/TR/2001/REC-SVG-20010904/DTD/svg10.dtd">
<svg version="1.0" xmlns="http://www.w3.org/2000/svg"
 width="944.000000pt" height="944.000000pt" viewBox="0 0 944.000000 944.000000"
 preserveAspectRatio="xMidYMid meet">
<metadata>
Created by potrace 1.14, written by Peter Selinger 2001-2017
</metadata>
<g transform="translate(0.000000,944.000000) scale(0.100000,-0.100000)"
fill="#000000" stroke="none">
<path d="M8298 7295 c-2 -2 -61 -6 -133 -10 -71 -3 -152 -8 -180 -10 -27 -2
-97 -6 -155 -10 -58 -3 -130 -7 -160 -10 -30 -2 -100 -7 -155 -10 -55 -3 -122
-8 -150 -10 -27 -2 -99 -6 -160 -10 -60 -3 -132 -8 -160 -11 -27 -2 -90 -6
-140 -9 -49 -3 -124 -7 -165 -10 -41 -2 -109 -7 -150 -9 -41 -3 -115 -7 -165
-11 -172 -12 -364 -24 -610 -40 -49 -3 -124 -8 -165 -10 -41 -3 -111 -8 -155
-10 -44 -3 -114 -8 -155 -10 -41 -3 -113 -7 -160 -10 -47 -3 -114 -8 -150 -10
-36 -3 -108 -7 -160 -10 -52 -3 -117 -7 -145 -9 -27 -3 -95 -8 -150 -11 -55
-3 -134 -8 -175 -11 -41 -2 -110 -6 -153 -9 -44 -2 -116 -7 -160 -10 -229 -15
-321 -22 -467 -30 -58 -4 -130 -8 -160 -10 -30 -2 -104 -7 -165 -10 -60 -4
-135 -8 -165 -10 -30 -2 -109 -6 -175 -10 -191 -9 -298 -16 -330 -19 -271 -29
-346 -68 -452 -234 -149 -232 -146 -331 15 -577 25 -38 59 -87 75 -108 32 -42
31 -48 -10 -53 -99 -11 -212 -19 -413 -29 -137 -7 -223 -14 -285 -22 -92 -11
-159 -7 -251 17 -108 28 -128 23 -197 -46 -85 -85 -139 -232 -141 -386 -1 -49
-3 -88 -6 -88 -3 0 -42 9 -88 20 -195 47 -259 14 -357 -185 -80 -162 -88 -260
-35 -424 24 -75 26 -121 6 -121 -8 0 -37 12 -64 26 -56 29 -114 37 -152 20
-63 -27 -135 -154 -160 -281 -6 -33 -25 -103 -43 -155 -17 -52 -32 -97 -32
-100 0 -3 -9 -25 -18 -50 l-18 -45 36 -103 c19 -57 38 -121 41 -143 6 -32 15
-45 50 -69 23 -17 47 -30 52 -30 5 0 36 -24 69 -54 66 -60 75 -64 183 -70 70
-5 76 -7 108 -41 49 -52 117 -154 131 -197 10 -30 10 -42 -2 -65 -46 -90 -57
-152 -71 -383 -2 -42 13 -78 64 -146 129 -173 318 -262 434 -205 16 7 67 22
115 33 109 25 111 25 157 32 67 11 98 16 129 22 56 10 190 15 201 7 7 -5 14
-47 17 -98 10 -180 49 -304 117 -375 78 -81 197 -120 263 -88 10 5 32 11 50
13 17 3 41 7 52 9 11 2 49 7 85 11 36 3 81 8 100 10 19 2 64 6 100 10 36 3 81
7 100 10 19 2 64 7 100 10 36 3 85 8 110 10 25 3 77 8 115 10 39 3 86 7 105
10 19 2 69 6 110 10 41 3 99 8 128 10 28 3 78 7 110 10 31 3 77 7 102 10 25 2
81 7 125 10 44 3 98 8 120 10 22 3 69 7 105 10 36 2 92 7 125 10 33 3 83 8
110 10 28 2 84 6 125 10 41 3 98 8 125 10 28 3 84 7 125 11 103 9 121 11 230
19 52 4 111 8 130 10 19 2 73 7 120 10 47 4 105 9 130 11 63 6 153 12 237 18
39 3 91 8 115 10 24 3 84 8 133 11 50 3 110 8 135 11 25 3 74 7 110 9 36 2 90
6 120 9 30 3 87 8 125 11 39 3 97 7 130 10 33 3 89 7 125 10 36 2 90 7 120 9
30 3 87 8 125 11 39 3 97 7 130 10 116 9 201 16 265 21 36 2 85 6 110 9 45 4
127 10 258 20 79 6 174 13 257 20 33 3 94 7 135 10 41 3 98 8 125 10 28 2 84
7 125 10 95 7 201 15 265 21 28 2 84 6 125 9 41 3 102 7 135 10 57 5 158 13
255 20 25 2 88 6 140 9 267 18 293 23 363 69 54 37 113 90 168 154 9 10 30 30
47 44 l32 27 -4 103 c-2 57 -6 111 -9 119 -2 8 -7 29 -12 45 -35 137 -100 279
-150 330 -19 19 -35 39 -35 45 0 11 29 61 41 70 18 14 68 137 76 185 14 93 14
175 -2 261 -18 103 -16 128 14 161 30 32 17 61 -33 73 -58 15 -85 30 -92 52
-12 38 -55 78 -85 78 -35 0 -47 -20 -50 -88 l-3 -52 -95 5 c-173 8 -234 14
-263 26 -15 6 -28 14 -28 18 0 15 -59 40 -96 41 -21 1 -82 -1 -134 -4 -52 -3
-129 -8 -170 -10 -41 -3 -113 -7 -160 -11 -86 -6 -140 -9 -305 -20 -49 -3
-117 -7 -150 -10 -33 -2 -100 -7 -150 -10 -49 -3 -112 -8 -140 -10 -27 -2 -93
-7 -145 -10 -52 -3 -119 -8 -149 -10 -51 -5 -140 -11 -286 -20 -85 -6 -188
-13 -275 -20 -41 -4 -106 -8 -145 -11 -38 -2 -97 -6 -130 -8 -33 -3 -100 -8
-150 -11 -49 -4 -110 -8 -135 -10 -100 -8 -199 -15 -275 -20 -44 -3 -107 -7
-140 -10 -110 -9 -294 -22 -405 -30 -41 -3 -100 -7 -130 -10 -30 -2 -95 -7
-145 -10 -49 -3 -106 -8 -125 -10 -19 -2 -80 -7 -135 -10 -55 -4 -116 -8 -135
-10 -19 -1 -75 -6 -125 -9 -49 -4 -110 -9 -135 -11 -25 -2 -88 -7 -140 -11
-52 -3 -111 -7 -130 -9 -19 -1 -82 -5 -140 -9 -58 -4 -116 -9 -130 -11 -14 -2
-70 -7 -125 -11 -55 -3 -116 -7 -135 -9 -104 -8 -219 -17 -255 -20 -22 -2 -76
-7 -120 -9 -76 -5 -125 -9 -260 -21 -65 -5 -158 -13 -247 -20 -72 -6 -180 -15
-243 -20 -70 -6 -191 -16 -245 -20 -25 -2 -72 -6 -105 -9 -33 -4 -94 -8 -135
-11 -42 -3 -85 -7 -96 -9 -11 -2 -54 -7 -95 -11 -41 -3 -92 -10 -114 -15 -80
-18 -107 -13 -171 34 -32 24 -68 46 -79 50 -28 8 -79 -25 -114 -76 -50 -72
-55 -76 -97 -71 -48 5 -62 17 -86 71 -21 46 -59 78 -83 68 -13 -4 -15 -19 -12
-68 2 -35 2 -71 -1 -81 -6 -23 -46 -43 -100 -51 -24 -3 -46 -7 -50 -10 -4 -2
-29 -7 -55 -10 l-48 -7 5 48 c3 26 10 73 15 103 6 30 9 114 7 185 -4 146 -27
255 -76 357 -32 65 -38 107 -17 109 23 2 82 8 132 14 64 8 118 14 175 19 25 3
65 8 90 11 66 8 108 13 170 20 30 4 69 9 85 11 17 3 46 7 65 9 35 4 82 10 163
21 23 3 58 7 77 9 19 2 51 6 70 9 34 5 136 19 230 31 25 4 61 9 80 11 19 3 46
7 60 9 14 2 43 6 65 10 22 3 65 8 95 10 120 9 197 15 250 20 142 12 189 16
245 20 33 2 101 7 150 10 50 4 110 9 135 10 25 2 77 6 115 9 39 3 102 8 140
11 188 12 244 16 285 20 25 3 86 7 135 11 50 3 111 7 136 9 26 2 89 7 140 10
52 3 117 8 144 10 28 2 86 7 130 10 44 3 109 8 145 11 36 2 99 7 140 9 203 14
332 23 425 30 33 3 96 7 140 10 44 3 107 7 140 10 33 3 98 8 145 10 47 3 112
7 145 10 91 7 211 15 300 20 44 3 107 7 140 10 76 6 198 14 295 20 74 5 125 8
285 20 79 6 172 12 290 19 123 8 262 17 315 21 30 3 98 7 150 10 104 6 177 11
285 19 69 5 165 11 335 21 47 3 114 7 150 10 93 7 267 16 390 20 79 2 116 8
150 24 86 40 96 33 163 -104 68 -138 76 -176 73 -336 -2 -81 -7 -152 -10 -158
-4 -6 -4 -11 1 -11 4 0 7 -18 6 -41 -2 -56 18 -130 39 -143 30 -19 46 18 46
109 0 44 3 116 7 160 9 109 9 182 0 230 -24 120 -119 321 -186 395 -36 40 -41
42 -81 36 -24 -3 -56 -10 -73 -16 -56 -17 -192 -37 -320 -45 -38 -3 -99 -7
-135 -10 -36 -3 -96 -7 -135 -10 -38 -2 -99 -7 -135 -9 -110 -9 -296 -22 -425
-31 -44 -3 -105 -7 -135 -10 -30 -2 -89 -7 -130 -10 -41 -3 -109 -7 -150 -11
-41 -3 -97 -7 -125 -9 -27 -2 -90 -6 -140 -10 -49 -4 -115 -8 -145 -10 -30 -2
-91 -6 -135 -10 -169 -13 -287 -21 -550 -39 -44 -3 -109 -8 -145 -11 -69 -5
-173 -13 -280 -20 -94 -6 -195 -14 -275 -20 -38 -3 -106 -8 -150 -11 -44 -3
-102 -7 -130 -9 -27 -3 -86 -7 -130 -10 -44 -2 -105 -7 -135 -10 -30 -2 -93
-7 -140 -10 -103 -7 -183 -13 -270 -20 -36 -3 -94 -7 -130 -10 -36 -2 -99 -7
-140 -10 -99 -8 -168 -13 -265 -19 -44 -3 -107 -8 -140 -11 -88 -7 -202 -15
-265 -20 -30 -2 -89 -7 -130 -10 -41 -3 -106 -7 -145 -10 -38 -3 -99 -7 -135
-10 -95 -8 -196 -15 -270 -20 -36 -3 -92 -7 -125 -10 -91 -7 -172 -14 -255
-20 -80 -6 -155 -12 -247 -20 -32 -3 -87 -8 -123 -11 -36 -2 -90 -7 -120 -9
-30 -3 -75 -7 -100 -10 -67 -9 -120 -13 -120 -9 0 4 109 55 129 60 19 4 149
34 171 39 8 1 35 6 60 9 25 3 56 8 70 10 14 3 43 7 65 10 22 4 51 8 65 11 14
2 48 7 75 10 28 4 64 8 80 11 17 2 53 6 80 9 83 8 137 14 195 21 30 4 78 8
105 10 28 1 79 5 115 8 36 3 106 8 155 11 50 3 122 7 160 9 102 7 250 17 326
21 37 2 97 6 135 9 38 3 110 8 159 11 50 3 117 8 150 10 33 2 101 6 150 9 124
8 226 15 315 22 98 7 206 14 305 19 44 3 107 7 140 10 33 2 101 7 150 10 50 3
117 8 150 10 33 3 103 7 155 10 52 3 118 7 145 9 28 2 100 7 160 11 61 3 133
8 160 10 28 2 93 7 145 10 52 3 120 8 150 10 30 2 102 7 160 10 58 4 122 8
143 10 21 2 88 7 150 10 61 4 132 8 157 10 25 1 90 6 145 9 55 4 120 9 145 11
25 3 99 7 165 10 66 4 136 8 155 10 19 2 87 6 150 10 63 4 131 9 150 10 205
14 261 18 300 20 159 9 282 16 325 20 28 2 88 7 135 10 47 3 99 8 115 11 17 3
44 7 60 9 17 2 30 4 30 5 0 1 10 3 22 6 12 2 62 13 110 23 48 11 99 22 113 25
81 15 149 71 169 137 12 40 14 155 6 364 -7 183 -28 286 -65 320 -11 10 -20
23 -20 30 0 21 84 43 195 51 33 2 87 6 120 8 33 3 98 7 145 11 46 3 88 9 91
13 9 9 74 221 102 332 16 63 15 89 -7 197 -31 151 -134 312 -223 350 -23 9
-52 12 -86 8 -29 -3 -63 -5 -77 -5 -144 3 -650 7 -652 5z m617 -120 c33 -4 69
-9 80 -10 11 -1 32 -3 47 -4 21 -1 40 -17 83 -73 78 -100 88 -122 90 -203 2
-102 -50 -285 -98 -347 -22 -28 -67 -40 -152 -39 -96 1 -132 10 -196 52 -46
29 -56 32 -142 32 -156 1 -347 -29 -462 -73 -15 -6 -47 -12 -73 -14 -91 -9
-198 -18 -247 -21 -27 -2 -84 -6 -125 -10 -135 -11 -184 -14 -275 -20 -49 -4
-110 -8 -135 -10 -25 -3 -83 -7 -130 -9 -47 -3 -110 -8 -140 -11 -30 -2 -97
-7 -148 -10 -52 -4 -112 -8 -135 -10 -23 -2 -84 -6 -135 -10 -52 -3 -117 -8
-145 -10 -29 -3 -92 -7 -142 -10 -49 -2 -110 -7 -135 -9 -60 -6 -203 -16 -430
-30 -52 -4 -115 -8 -140 -11 -25 -2 -85 -6 -135 -10 -49 -3 -117 -8 -150 -10
-62 -5 -168 -13 -290 -20 -155 -10 -233 -15 -285 -20 -30 -3 -98 -7 -150 -10
-52 -3 -115 -7 -140 -9 -25 -3 -89 -8 -143 -11 -53 -3 -121 -8 -150 -10 -132
-10 -208 -16 -287 -20 -47 -3 -114 -7 -150 -10 -62 -6 -127 -10 -286 -20 -40
-2 -103 -6 -140 -9 -81 -7 -197 -15 -312 -21 -128 -8 -172 -13 -237 -31 -110
-30 -109 -30 -100 -3 11 32 15 247 5 273 -4 12 -13 46 -20 76 -17 77 -44 151
-92 248 -24 50 -37 87 -32 92 5 5 41 12 79 15 139 12 161 14 250 20 50 4 110
8 135 11 25 2 88 6 140 10 52 3 112 7 132 9 36 4 123 10 273 20 39 2 104 7
145 10 41 3 107 7 145 10 39 2 99 6 135 9 243 19 269 20 435 31 61 3 128 8
150 10 22 2 85 7 140 10 55 3 127 7 160 10 33 2 96 7 140 10 44 3 107 8 140
11 33 2 103 7 155 10 139 7 205 12 293 18 132 10 219 16 307 21 47 2 112 7
145 9 33 3 103 8 155 11 52 3 124 8 160 10 36 3 103 7 150 10 47 3 114 7 150
10 36 3 109 7 163 10 54 3 126 7 160 10 67 6 166 12 317 20 52 3 129 8 170 11
82 6 124 9 310 19 69 4 148 8 175 10 28 2 140 6 250 10 110 4 201 8 202 9 6 6
464 -2 518 -9z m-6519 -484 c36 -22 93 -90 118 -141 47 -94 82 -261 70 -328
-8 -44 -65 -101 -96 -98 -35 4 -67 28 -77 59 -12 33 -6 54 27 87 13 13 19 26
13 28 -16 5 -76 -44 -90 -75 -26 -54 -29 -58 -47 -55 -70 13 -146 176 -139
298 3 56 53 159 100 207 41 42 73 47 121 18z m6177 -404 c78 -44 98 -130 99
-422 1 -202 -6 -251 -35 -270 -22 -14 -168 -54 -222 -61 -16 -2 -109 -6 -205
-9 -96 -3 -197 -8 -225 -10 -27 -2 -93 -6 -145 -9 -52 -4 -122 -8 -155 -11
-33 -2 -98 -7 -145 -10 -47 -3 -116 -7 -155 -10 -66 -5 -121 -8 -310 -20 -44
-2 -107 -7 -140 -10 -33 -3 -96 -8 -140 -10 -79 -3 -187 -11 -315 -20 -36 -3
-99 -7 -140 -10 -78 -5 -213 -14 -290 -20 -25 -2 -88 -6 -140 -10 -52 -3 -124
-8 -160 -11 -36 -2 -100 -7 -143 -9 -43 -2 -104 -7 -135 -9 -31 -3 -100 -8
-152 -11 -52 -4 -120 -8 -150 -10 -30 -2 -98 -7 -150 -11 -52 -4 -108 -8 -125
-9 -16 -1 -84 -6 -150 -10 -66 -4 -138 -9 -160 -10 -22 -2 -80 -6 -130 -9 -49
-4 -115 -9 -145 -11 -30 -3 -91 -7 -135 -10 -44 -3 -109 -7 -145 -10 -156 -11
-210 -15 -285 -20 -44 -3 -107 -8 -140 -11 -33 -2 -89 -6 -125 -9 -36 -2 -95
-6 -132 -9 -38 -4 -98 -8 -135 -11 -149 -11 -189 -16 -218 -25 -16 -5 -82 -12
-145 -14 -63 -3 -133 -8 -155 -10 -22 -3 -71 -8 -110 -11 -122 -11 -159 -15
-200 -20 -22 -2 -71 -7 -110 -10 -38 -4 -81 -8 -95 -10 -14 -2 -59 -7 -100
-10 -41 -4 -93 -8 -115 -10 -22 -2 -78 -7 -125 -10 -47 -4 -98 -8 -113 -10
-42 -5 -76 11 -88 42 -10 26 -27 121 -44 253 -4 30 -9 64 -11 75 -7 44 -44
183 -64 239 -12 32 -19 65 -16 72 3 7 27 19 53 27 36 11 49 20 53 37 9 36 4
35 380 56 115 6 239 14 305 19 33 3 89 7 125 10 36 3 85 7 110 9 25 3 79 7
120 11 41 3 98 8 125 10 28 3 91 7 140 10 96 7 143 10 295 20 52 4 120 9 150
10 163 10 240 16 285 20 28 3 88 7 135 10 47 3 117 8 155 11 77 5 209 13 295
19 132 8 249 16 295 19 28 3 93 7 145 11 52 3 120 8 150 10 30 2 100 6 155 10
55 3 127 8 160 10 33 3 96 7 140 10 44 3 112 7 150 10 39 3 105 7 149 10 43 2
117 7 165 10 95 7 167 12 286 19 110 7 238 16 310 21 55 5 127 9 310 20 39 2
102 7 140 10 39 3 115 8 170 10 55 3 123 7 150 10 28 2 93 7 145 10 52 3 127
8 165 10 39 3 106 7 150 10 44 3 118 7 165 11 124 8 209 13 356 19 94 3 151
11 200 26 38 12 83 24 99 26 17 3 31 6 33 7 11 11 123 -9 155 -27z m-7282
-493 c80 -40 179 -213 132 -231 -30 -12 -45 -32 -47 -68 -4 -39 10 -55 50 -58
47 -4 63 -39 70 -153 7 -112 -6 -167 -53 -231 -23 -32 -26 -33 -96 -33 -73 0
-103 11 -135 50 -19 24 -79 151 -90 192 -9 34 -7 41 25 83 32 40 35 48 25 71
-14 29 -1 60 42 107 30 32 32 43 10 51 -23 9 -51 -10 -59 -41 -7 -29 -24 -48
-65 -74 -63 -38 -75 -4 -43 120 13 52 28 100 33 106 6 7 8 14 6 16 -10 10 53
86 84 101 35 18 64 16 111 -8z m-415 -565 c45 -42 79 -128 89 -224 2 -22 7
-65 11 -95 12 -96 9 -116 -18 -134 -22 -14 -60 -24 -118 -31 -116 -14 -143
-15 -160 -10 -18 6 -18 7 -1 48 12 28 26 44 42 48 21 5 20 7 -18 18 -26 7 -44
19 -48 31 -6 20 -7 20 -36 3 -43 -26 -52 -9 -51 90 1 136 30 210 95 244 91 47
171 52 213 12z m267 -268 c29 -21 94 -65 145 -96 51 -32 91 -59 89 -61 -2 -2
-37 -6 -78 -9 -63 -5 -80 -3 -114 14 -21 12 -47 21 -56 21 -26 0 -49 33 -50
76 -3 55 0 94 6 94 3 0 29 -18 58 -39z m-717 -396 c39 -27 115 -201 129 -295
13 -86 15 -105 16 -205 0 -108 -5 -148 -21 -153 -5 -2 -10 -9 -10 -15 0 -23
-45 -96 -73 -118 -34 -26 -59 -27 -110 -6 -48 21 -143 110 -152 144 -7 28 -28
53 -45 53 -15 0 -5 33 26 88 14 23 22 42 17 42 -4 0 -2 5 5 12 7 7 12 20 12
30 0 11 9 38 20 60 27 57 26 63 -17 74 -54 14 -59 29 -44 131 13 94 28 137 49
139 6 1 13 3 15 4 4 4 120 27 142 29 11 0 30 -6 41 -14z m8637 -274 c30 -1 40
-6 44 -21 3 -11 9 -21 14 -21 29 -4 35 -3 47 8 24 23 43 14 62 -30 50 -114 57
-261 17 -375 -36 -101 -62 -140 -95 -144 -15 -2 -72 11 -126 29 -104 34 -150
41 -161 22 -8 -13 -50 -29 -90 -36 -33 -6 -63 -20 -82 -39 -15 -15 -78 -29
-218 -49 -23 -3 -50 -7 -60 -9 -11 -2 -40 -7 -65 -12 -25 -4 -47 -8 -50 -9
-27 -7 -90 -15 -160 -20 -116 -8 -195 -14 -260 -20 -30 -3 -93 -8 -140 -11
-47 -2 -105 -7 -130 -9 -25 -2 -83 -7 -130 -10 -47 -4 -105 -8 -130 -11 -25
-2 -85 -6 -135 -9 -49 -3 -110 -7 -135 -10 -25 -2 -85 -7 -135 -10 -49 -3
-112 -7 -140 -10 -27 -2 -88 -7 -135 -10 -92 -7 -140 -10 -269 -20 -85 -7
-123 -10 -271 -19 -47 -4 -110 -8 -140 -11 -30 -3 -93 -8 -140 -10 -47 -3
-110 -7 -140 -10 -30 -3 -91 -8 -135 -10 -44 -3 -105 -7 -135 -10 -30 -3 -91
-7 -135 -10 -44 -3 -105 -8 -135 -10 -30 -3 -93 -7 -140 -10 -47 -3 -110 -8
-140 -10 -30 -2 -93 -7 -140 -10 -47 -4 -105 -8 -130 -10 -25 -2 -85 -6 -135
-9 -49 -3 -121 -8 -160 -11 -38 -3 -95 -8 -125 -10 -30 -2 -93 -7 -140 -11
-47 -3 -105 -7 -130 -9 -128 -9 -316 -22 -420 -31 -41 -3 -102 -7 -135 -9 -33
-2 -96 -7 -140 -10 -44 -4 -107 -9 -140 -11 -131 -8 -222 -15 -260 -18 -22 -2
-85 -7 -140 -11 -55 -3 -120 -8 -145 -10 -25 -2 -86 -7 -136 -10 -51 -3 -111
-8 -135 -10 -24 -3 -87 -7 -140 -10 -53 -3 -107 -8 -120 -10 -13 -3 -37 -7
-54 -9 -16 -3 -57 -12 -90 -21 -33 -8 -76 -18 -95 -21 -19 -3 -40 -7 -47 -9
-7 -2 -44 -7 -83 -11 -82 -7 -84 -4 -45 70 13 25 25 50 26 54 1 4 3 12 5 17 2
6 7 33 12 60 19 111 -9 246 -82 408 -50 107 -50 107 -16 114 17 3 30 8 30 12
0 3 55 6 123 7 115 0 327 10 427 19 25 2 97 7 160 10 63 4 138 8 165 10 28 2
97 6 155 10 58 3 128 8 155 11 28 2 91 7 140 9 50 3 115 7 145 9 30 3 98 7
150 11 52 3 122 8 155 10 33 3 107 8 165 11 58 3 121 7 140 9 19 1 80 5 135 9
55 4 125 9 155 11 30 2 100 7 155 10 55 3 118 8 140 10 22 2 85 7 140 10 55 4
120 8 145 10 25 2 92 7 150 10 58 3 125 8 150 10 25 2 88 6 140 10 52 3 115 8
140 10 25 2 90 7 145 10 55 3 120 7 145 10 25 2 89 7 144 10 54 3 119 8 145
10 25 2 91 7 146 10 55 4 118 8 140 10 22 2 81 6 130 9 50 4 117 9 150 11 33
3 94 7 135 10 181 13 219 16 285 21 39 3 99 7 135 10 108 6 211 13 285 19 39
3 102 7 140 10 39 3 95 7 125 10 56 5 134 11 275 20 44 4 105 8 135 10 30 3
87 7 125 10 39 3 97 8 130 10 33 3 94 7 135 10 41 3 93 7 115 9 22 3 81 7 130
11 50 4 104 9 120 11 17 2 89 6 160 10 72 4 131 7 132 8 2 1 172 -1 246 -3z
m-8859 -67 c-5 -29 -51 -124 -60 -124 -10 0 5 121 17 136 6 8 20 14 30 14 14
0 17 -6 13 -26z m1215 -508 c49 -102 58 -157 55 -317 -1 -79 -5 -161 -8 -181
-18 -118 -73 -160 -161 -124 -40 17 -54 40 -60 101 -2 25 -11 69 -20 97 -8 28
-15 69 -15 90 0 29 -7 45 -26 63 -32 30 -54 114 -49 185 7 87 53 153 70 100
10 -32 43 -24 73 19 54 78 93 69 141 -33z m-497 -9 c8 -12 4 -104 -8 -173 -4
-22 -8 -46 -9 -56 -2 -26 -24 -47 -45 -43 -58 11 -94 53 -96 113 -2 69 -2 69
-26 75 -15 4 -30 -1 -44 -14 l-22 -21 -17 32 c-9 17 -14 37 -12 44 6 14 98 43
168 52 24 3 46 8 47 9 8 7 57 -7 64 -18z m7928 -143 c0 -2 -9 -4 -20 -4 -11 0
-20 4 -20 9 0 5 9 7 20 4 11 -3 20 -7 20 -9z m-122 -6 c-3 -7 -17 -15 -33 -16
-25 -3 -27 -2 -16 12 16 19 55 22 49 4z m422 -125 c38 -26 47 -39 101 -149 58
-116 71 -180 52 -240 -18 -53 -104 -150 -146 -163 -41 -13 -157 -33 -266 -46
-30 -4 -61 -8 -70 -10 -18 -3 -96 -12 -186 -20 -99 -10 -186 -25 -260 -45 -79
-21 -122 -28 -215 -35 -36 -2 -87 -6 -115 -9 -27 -3 -86 -8 -130 -11 -44 -3
-100 -8 -125 -10 -25 -3 -81 -7 -125 -10 -44 -3 -105 -7 -135 -10 -30 -2 -91
-7 -135 -10 -44 -3 -102 -8 -130 -11 -27 -3 -90 -7 -140 -10 -49 -2 -106 -6
-125 -8 -19 -3 -80 -7 -135 -11 -55 -4 -116 -8 -135 -10 -32 -3 -122 -10 -270
-20 -30 -2 -89 -7 -130 -10 -41 -3 -102 -8 -135 -10 -130 -9 -213 -15 -280
-21 -38 -3 -97 -7 -130 -9 -33 -2 -94 -6 -135 -10 -92 -7 -167 -12 -285 -20
-49 -3 -106 -8 -125 -10 -19 -2 -75 -7 -125 -10 -49 -3 -117 -8 -150 -10 -139
-9 -243 -16 -288 -20 -27 -3 -90 -7 -140 -10 -99 -7 -146 -10 -272 -20 -160
-12 -269 -20 -425 -30 -25 -2 -83 -6 -130 -9 -329 -24 -384 -28 -435 -31 -48
-3 -145 -10 -285 -20 -36 -3 -96 -7 -135 -10 -38 -2 -106 -7 -150 -10 -44 -4
-107 -8 -140 -10 -33 -2 -105 -7 -160 -10 -55 -4 -121 -8 -148 -10 -32 -2 -52
2 -62 12 -18 18 -16 4 -20 148 -3 124 -6 148 -25 249 -11 54 -10 61 6 73 10 7
34 14 53 14 20 1 50 2 66 4 17 1 68 5 115 9 47 4 105 9 130 11 69 6 198 16
270 20 36 2 92 7 125 9 33 3 94 8 135 11 41 3 100 7 130 10 57 5 175 14 270
20 30 2 93 6 140 10 100 8 194 14 270 19 30 2 91 7 135 10 44 4 114 9 155 11
41 3 95 7 120 9 25 3 88 8 140 11 52 3 120 8 150 10 30 3 89 7 130 10 41 3
104 7 140 10 137 10 198 14 280 20 47 3 105 8 130 10 25 3 88 7 140 10 52 3
122 8 155 11 72 5 150 11 265 19 47 4 108 8 135 11 28 2 91 6 140 9 50 3 106
7 125 9 19 2 78 7 130 10 52 4 115 8 140 11 25 2 90 7 145 10 55 3 116 7 135
9 19 2 82 7 140 10 58 4 123 8 145 11 22 2 85 7 140 10 55 4 116 8 135 10 66
5 225 17 285 20 56 4 120 8 275 20 172 13 210 15 275 20 67 5 131 10 260 20
33 3 92 7 130 10 39 3 86 7 105 10 19 3 55 7 79 10 23 3 57 8 75 11 17 3 47 7
66 9 54 6 97 14 124 25 21 7 26 16 26 42 0 52 10 77 34 81 48 9 83 6 106 -10z
m-8119 -120 c-1 -27 -4 -61 -6 -78 -3 -16 -7 -55 -10 -85 -4 -30 -8 -62 -10
-70 -2 -8 -7 -37 -11 -65 -18 -146 -55 -255 -90 -269 -38 -14 -102 58 -159
179 -60 128 -68 186 -40 283 22 73 45 91 114 91 57 0 133 21 161 45 17 15 43
25 49 20 2 -2 3 -25 2 -51z m108 -218 c13 -50 7 -201 -12 -266 -18 -60 -62
-116 -115 -143 -31 -16 -32 -16 -32 4 0 12 9 43 21 69 11 27 21 55 22 62 2 8
6 19 9 25 4 6 10 26 13 44 3 18 8 36 10 40 2 4 7 20 9 36 3 16 8 40 11 54 3
14 8 35 11 47 9 43 24 74 34 68 5 -3 13 -21 19 -40z m681 -109 c0 -22 -44 -80
-71 -93 -13 -6 -53 -15 -89 -18 -75 -7 -120 -14 -131 -20 -3 -3 -10 -20 -13
-39 -7 -38 -14 -42 -91 -52 -27 -3 -53 -8 -56 -10 -4 -2 -24 -6 -45 -10 -22
-3 -59 -9 -82 -14 l-44 -8 6 62 c4 33 9 86 12 116 3 30 6 61 7 68 1 16 1 16
46 -8 57 -29 85 -31 143 -10 51 18 112 25 288 35 46 3 86 7 88 10 11 10 32 5
32 -9z m188 -249 c7 -7 14 -29 16 -49 4 -29 9 -299 7 -350 -1 -10 -12 -25 -25
-33 -22 -14 -27 -14 -65 1 -39 15 -83 60 -111 113 -26 49 -40 193 -26 263 6
34 11 38 53 50 68 19 138 22 151 5z"/>
<path d="M672 4942 c-8 -2 -9 -9 -2 -23 11 -20 40 -26 40 -8 0 16 -24 36 -38
31z"/>
<path d="M1386 6008 c-14 -20 -14 -23 0 -31 11 -6 19 -5 25 4 22 36 -2 61 -25
27z"/>
<path d="M877 5766 c-3 -8 1 -22 8 -33 12 -15 16 -16 24 -4 6 10 6 22 0 33
-12 22 -25 23 -32 4z"/>
</g>
</svg>
